<svg width="30" height="30" viewBox="0 0 30 30" fill="none" xmlns="http://www.w3.org/2000/svg">
<path d="M12.2227 6.42871C12.5171 6.42882 12.7995 6.54143 13.0078 6.74219C13.2162 6.94312 13.333 7.21584 13.333 7.5V17.1426H23.333C23.6277 17.1426 23.9108 17.2561 24.1191 17.457C24.3273 17.6579 24.4442 17.93 24.4443 18.2139C24.4443 21.3396 23.1564 24.3376 20.8643 26.5479C18.5723 28.7579 15.464 29.9999 12.2227 30C8.98115 30 5.87219 28.7581 3.58008 26.5479C1.28796 24.3376 0 21.3396 0 18.2139C0.000102503 15.0883 1.28809 12.091 3.58008 9.88086C5.87219 7.67061 8.98112 6.42871 12.2227 6.42871ZM11.1113 8.63574C9.23939 8.83657 7.46405 9.54294 5.99023 10.6738C4.51639 11.8048 3.40361 13.3144 2.78027 15.0283C2.15698 16.7422 2.04832 18.5915 2.4668 20.3623C2.88532 22.133 3.81379 23.7539 5.14551 25.0381C6.47737 26.3224 8.15865 27.2176 9.99512 27.6211C11.8316 28.0246 13.749 27.9204 15.5264 27.3193C17.3038 26.7183 18.8692 25.6448 20.042 24.2236C21.2146 22.8026 21.9469 21.091 22.1553 19.2861H13.333C12.7438 19.286 12.1784 19.06 11.7617 18.6582C11.345 18.2563 11.1113 17.7109 11.1113 17.1426V8.63574ZM17.7773 0C21.0189 0 24.1278 1.24193 26.4199 3.45215C28.712 5.6624 30 8.66037 30 11.7861C29.9999 12.07 29.8829 12.3422 29.6748 12.543C29.4664 12.7439 29.1834 12.8574 28.8887 12.8574H18.8887C18.2994 12.8574 17.7341 12.6313 17.3174 12.2295C16.9007 11.8276 16.667 11.2821 16.667 10.7139V1.07129C16.667 0.787179 16.7838 0.514375 16.9922 0.313477C17.2004 0.112773 17.4829 0.000107766 17.7773 0ZM18.8887 10.7139H27.7109C27.458 8.54186 26.4474 6.51723 24.8447 4.97168C23.2418 3.42599 21.1414 2.45085 18.8887 2.20703V10.7139Z" fill="#6563FF"/>
</svg>
